<?xml version="1.0" standalone="no"?>
<!DOCTYPE svg PUBLIC "-//W3C//DTD SVG 20010904//EN"
 "http://www.w3.org/TR/2001/REC-SVG-20010904/DTD/svg10.dtd">
<svg version="1.0" xmlns="http://www.w3.org/2000/svg"
 width="1651.000000pt" height="3509.000000pt" viewBox="0 0 1651.000000 3509.000000"
 preserveAspectRatio="xMidYMid meet">

<g transform="translate(0.000000,3509.000000) scale(0.100000,-0.100000)"
fill="#FFFFFF" stroke="none">
<path d="M0 21531 c0 -7458 2 -13561 5 -13561 3 0 882 321 1953 714 2679 983
3522 1292 4562 1671 492 180 921 338 953 352 76 34 122 86 136 155 8 38 11
2537 9 9093 -3 8826 -3 9041 -22 9089 -11 28 -42 72 -75 107 -31 32 -864 694
-1851 1471 -987 778 -2519 1985 -3405 2684 -885 698 -1738 1371 -1895 1494
-157 123 -304 239 -327 258 l-43 34 0 -13561z"/>
<path d="M16405 35013 c-49 -38 -997 -784 -2105 -1659 -1108 -874 -2768 -2183
-3687 -2908 -1583 -1248 -1674 -1321 -1698 -1370 l-25 -51 2 -9107 3 -9107 21
-28 c12 -15 34 -36 50 -45 17 -10 986 -368 2154 -797 1169 -428 2658 -975
3310 -1214 1580 -580 2064 -757 2067 -753 2 1 2 6101 1 13555 l-3 13553 -90
-69z"/>
<path d="M120 3110 l0 -3111 1083 3 1082 3 77 23 c149 43 262 101 398 204 105
78 190 181 246 293 83 170 78 108 82 1030 2 525 -1 852 -7 910 -37 318 -182
552 -429 692 -35 19 -60 39 -55 42 4 4 45 37 89 74 187 153 279 316 303 539
14 128 15 1540 1 1663 -15 130 -35 197 -91 314 -43 87 -63 116 -132 186 -47
47 -112 100 -152 123 -86 50 -224 97 -328 111 -52 7 -437 11 -1123 11 l-1044
0 0 -3110z m1765 2156 c18 -8 45 -32 59 -53 l25 -38 7 -395 c4 -217 3 -543 -1
-725 l-7 -330 -38 -37 -38 -38 -351 0 -351 0 0 815 0 815 330 0 c263 0 338 -3
365 -14z m-25 -2577 c60 -21 107 -59 145 -113 67 -97 65 -76 65 -835 0 -646
-1 -688 -18 -720 -38 -71 -41 -71 -474 -71 l-388 0 0 874 0 875 43 4 c93 10
592 -1 627 -14z"/>
<path d="M14310 6205 c-86 -18 -134 -36 -233 -87 -120 -62 -256 -199 -320
-324 -25 -50 -56 -126 -69 -170 l-23 -79 0 -805 c0 -913 -5 -850 85 -1035 61
-126 145 -240 280 -379 187 -193 361 -325 704 -533 245 -149 383 -239 526
-346 118 -88 141 -111 181 -187 22 -43 24 -59 32 -341 6 -178 6 -422 1 -612
-8 -297 -10 -317 -30 -344 -35 -48 -65 -52 -372 -52 -238 -1 -289 2 -317 15
-52 24 -60 57 -58 234 1 85 -1 318 -4 517 l-5 363 -509 0 -508 0 -6 -32 c-3
-18 -5 -330 -2 -693 3 -565 5 -667 19 -712 70 -228 254 -434 482 -538 134 -61
113 -60 911 -60 725 1 731 1 810 23 301 84 521 306 601 607 18 66 19 122 19
935 0 864 0 865 -22 953 -32 124 -75 221 -143 324 -147 221 -303 348 -860 698
-571 359 -699 453 -755 557 l-29 53 -4 393 c-3 216 -1 445 3 510 l7 117 42 41
c40 41 44 42 126 49 47 4 186 5 310 3 195 -3 230 -5 253 -21 53 -34 54 -41 61
-479 3 -224 9 -414 12 -422 5 -14 62 -16 505 -16 l499 0 0 544 c0 541 -4 635
-36 761 -49 191 -153 352 -291 446 -63 44 -160 86 -256 111 -80 22 -97 22
-817 24 -585 2 -748 0 -800 -11z"/>
<path d="M6453 6198 c3 -7 63 -159 134 -338 72 -179 147 -369 167 -423 37 -96
70 -148 107 -168 12 -6 187 -10 479 -9 l460 0 0 -2625 0 -2625 515 0 515 0 0
2625 0 2625 460 0 c270 0 467 3 478 9 37 20 54 54 132 281 114 329 220 643
220 652 0 5 -826 8 -1836 8 -1465 0 -1835 -3 -1831 -12z"/>
</g>
</svg>
